<mxfile host="app.diagrams.net" modified="2022-05-06T12:56:14.146Z" agent="5.0 (Windows NT 10.0; Win64; x64) AppleWebKit/537.36 (KHTML, like Gecko) Chrome/101.0.4951.54 Safari/537.36" etag="RUb4ZALlIxSFfdKy4wWf" version="17.4.6" type="github">
  <diagram id="aI2sqlneqVLhRnIyyCKj" name="Page-1">
    <mxGraphModel dx="2078" dy="2297" grid="1" gridSize="10" guides="1" tooltips="1" connect="1" arrows="1" fold="1" page="1" pageScale="1" pageWidth="827" pageHeight="1169" math="0" shadow="0">
      <root>
        <mxCell id="0" />
        <mxCell id="1" parent="0" />
        <mxCell id="ScBcNCU1pK4F4PmTirVT-29" style="edgeStyle=orthogonalEdgeStyle;rounded=0;orthogonalLoop=1;jettySize=auto;html=1;entryX=0;entryY=0.5;entryDx=0;entryDy=0;" edge="1" parent="1" source="ScBcNCU1pK4F4PmTirVT-23" target="ScBcNCU1pK4F4PmTirVT-26">
          <mxGeometry relative="1" as="geometry">
            <Array as="points">
              <mxPoint x="290" y="140" />
              <mxPoint x="290" y="250" />
            </Array>
          </mxGeometry>
        </mxCell>
        <mxCell id="ScBcNCU1pK4F4PmTirVT-23" value="Customer MS" style="rounded=1;whiteSpace=wrap;html=1;" vertex="1" parent="1">
          <mxGeometry x="110" y="110" width="120" height="60" as="geometry" />
        </mxCell>
        <mxCell id="ScBcNCU1pK4F4PmTirVT-30" style="edgeStyle=orthogonalEdgeStyle;rounded=0;orthogonalLoop=1;jettySize=auto;html=1;" edge="1" parent="1" source="ScBcNCU1pK4F4PmTirVT-24" target="ScBcNCU1pK4F4PmTirVT-26">
          <mxGeometry relative="1" as="geometry" />
        </mxCell>
        <mxCell id="ScBcNCU1pK4F4PmTirVT-24" value="Document MS" style="rounded=1;whiteSpace=wrap;html=1;" vertex="1" parent="1">
          <mxGeometry x="110" y="220" width="120" height="60" as="geometry" />
        </mxCell>
        <mxCell id="ScBcNCU1pK4F4PmTirVT-31" style="edgeStyle=orthogonalEdgeStyle;rounded=0;orthogonalLoop=1;jettySize=auto;html=1;" edge="1" parent="1" source="ScBcNCU1pK4F4PmTirVT-25">
          <mxGeometry relative="1" as="geometry">
            <mxPoint x="350" y="250" as="targetPoint" />
            <Array as="points">
              <mxPoint x="290" y="350" />
              <mxPoint x="290" y="250" />
            </Array>
          </mxGeometry>
        </mxCell>
        <mxCell id="ScBcNCU1pK4F4PmTirVT-25" value="Account MS" style="rounded=1;whiteSpace=wrap;html=1;" vertex="1" parent="1">
          <mxGeometry x="120" y="320" width="120" height="60" as="geometry" />
        </mxCell>
        <mxCell id="ScBcNCU1pK4F4PmTirVT-26" value="MetricExporter" style="shape=process;whiteSpace=wrap;html=1;backgroundOutline=1;" vertex="1" parent="1">
          <mxGeometry x="354" y="220" width="120" height="60" as="geometry" />
        </mxCell>
        <mxCell id="ScBcNCU1pK4F4PmTirVT-27" value="&lt;br&gt;Kafka topic vs. configuration&lt;br&gt;Kaç saniyede bir okuma yapsın bunu alacak&lt;br&gt;Endpoint listesi" style="text;html=1;strokeColor=none;fillColor=none;spacing=5;spacingTop=-20;whiteSpace=wrap;overflow=hidden;rounded=0;" vertex="1" parent="1">
          <mxGeometry x="354" y="320" width="266" height="50" as="geometry" />
        </mxCell>
        <mxCell id="ScBcNCU1pK4F4PmTirVT-28" value="Kafka" style="shape=cylinder3;whiteSpace=wrap;html=1;boundedLbl=1;backgroundOutline=1;size=15;rotation=90;" vertex="1" parent="1">
          <mxGeometry x="760" y="145" width="60" height="210" as="geometry" />
        </mxCell>
        <mxCell id="ScBcNCU1pK4F4PmTirVT-32" value="" style="endArrow=classic;html=1;rounded=0;entryX=0.5;entryY=1;entryDx=0;entryDy=0;entryPerimeter=0;exitX=1;exitY=0.5;exitDx=0;exitDy=0;" edge="1" parent="1" source="ScBcNCU1pK4F4PmTirVT-26" target="ScBcNCU1pK4F4PmTirVT-28">
          <mxGeometry width="50" height="50" relative="1" as="geometry">
            <mxPoint x="480" y="260" as="sourcePoint" />
            <mxPoint x="530" y="210" as="targetPoint" />
          </mxGeometry>
        </mxCell>
        <mxCell id="ScBcNCU1pK4F4PmTirVT-35" value="Customer MS" style="rounded=1;whiteSpace=wrap;html=1;" vertex="1" parent="1">
          <mxGeometry x="120" y="120" width="120" height="60" as="geometry" />
        </mxCell>
        <mxCell id="ScBcNCU1pK4F4PmTirVT-36" value="Document MS" style="rounded=1;whiteSpace=wrap;html=1;" vertex="1" parent="1">
          <mxGeometry x="120" y="230" width="120" height="60" as="geometry" />
        </mxCell>
        <mxCell id="ScBcNCU1pK4F4PmTirVT-37" value="Document MS" style="rounded=1;whiteSpace=wrap;html=1;" vertex="1" parent="1">
          <mxGeometry x="130" y="240" width="120" height="60" as="geometry" />
        </mxCell>
        <mxCell id="ScBcNCU1pK4F4PmTirVT-38" value="http://document/actuator/prometeus" style="text;html=1;strokeColor=none;fillColor=none;align=center;verticalAlign=middle;whiteSpace=wrap;rounded=0;" vertex="1" parent="1">
          <mxGeometry x="340" y="390" width="236" height="30" as="geometry" />
        </mxCell>
        <mxCell id="ScBcNCU1pK4F4PmTirVT-42" value="Kubernetes Registry" style="shape=process;whiteSpace=wrap;html=1;backgroundOutline=1;" vertex="1" parent="1">
          <mxGeometry x="354" y="-60" width="120" height="60" as="geometry" />
        </mxCell>
        <mxCell id="ScBcNCU1pK4F4PmTirVT-44" value="" style="endArrow=classic;startArrow=classic;html=1;rounded=0;exitX=0.5;exitY=0;exitDx=0;exitDy=0;entryX=0.5;entryY=1;entryDx=0;entryDy=0;" edge="1" parent="1" source="ScBcNCU1pK4F4PmTirVT-26" target="ScBcNCU1pK4F4PmTirVT-42">
          <mxGeometry width="50" height="50" relative="1" as="geometry">
            <mxPoint x="510" y="130" as="sourcePoint" />
            <mxPoint x="410" y="10" as="targetPoint" />
          </mxGeometry>
        </mxCell>
        <mxCell id="ScBcNCU1pK4F4PmTirVT-47" value="Format?" style="text;html=1;strokeColor=none;fillColor=none;align=center;verticalAlign=middle;whiteSpace=wrap;rounded=0;" vertex="1" parent="1">
          <mxGeometry x="600" y="210" width="60" height="30" as="geometry" />
        </mxCell>
        <mxCell id="ScBcNCU1pK4F4PmTirVT-48" value="Account MS" style="rounded=1;whiteSpace=wrap;html=1;" vertex="1" parent="1">
          <mxGeometry x="110" y="540" width="120" height="60" as="geometry" />
        </mxCell>
        <mxCell id="ScBcNCU1pK4F4PmTirVT-51" style="edgeStyle=orthogonalEdgeStyle;rounded=0;orthogonalLoop=1;jettySize=auto;html=1;entryX=0.5;entryY=1;entryDx=0;entryDy=0;entryPerimeter=0;" edge="1" parent="1" source="ScBcNCU1pK4F4PmTirVT-49" target="ScBcNCU1pK4F4PmTirVT-50">
          <mxGeometry relative="1" as="geometry" />
        </mxCell>
        <mxCell id="ScBcNCU1pK4F4PmTirVT-49" value="Metric Sidecar" style="rounded=1;whiteSpace=wrap;html=1;" vertex="1" parent="1">
          <mxGeometry x="240" y="540" width="50" height="60" as="geometry" />
        </mxCell>
        <mxCell id="ScBcNCU1pK4F4PmTirVT-50" value="Kafka" style="shape=cylinder3;whiteSpace=wrap;html=1;boundedLbl=1;backgroundOutline=1;size=15;rotation=90;" vertex="1" parent="1">
          <mxGeometry x="640" y="465" width="60" height="210" as="geometry" />
        </mxCell>
        <mxCell id="ScBcNCU1pK4F4PmTirVT-52" value="Account MS" style="rounded=1;whiteSpace=wrap;html=1;" vertex="1" parent="1">
          <mxGeometry x="110" y="620" width="120" height="60" as="geometry" />
        </mxCell>
        <mxCell id="ScBcNCU1pK4F4PmTirVT-54" style="edgeStyle=orthogonalEdgeStyle;rounded=0;orthogonalLoop=1;jettySize=auto;html=1;entryX=0.5;entryY=1;entryDx=0;entryDy=0;entryPerimeter=0;" edge="1" parent="1" source="ScBcNCU1pK4F4PmTirVT-53" target="ScBcNCU1pK4F4PmTirVT-50">
          <mxGeometry relative="1" as="geometry" />
        </mxCell>
        <mxCell id="ScBcNCU1pK4F4PmTirVT-53" value="Metric Sidecar" style="rounded=1;whiteSpace=wrap;html=1;" vertex="1" parent="1">
          <mxGeometry x="240" y="620" width="50" height="60" as="geometry" />
        </mxCell>
        <mxCell id="ScBcNCU1pK4F4PmTirVT-56" style="edgeStyle=orthogonalEdgeStyle;rounded=0;orthogonalLoop=1;jettySize=auto;html=1;entryX=0.5;entryY=1;entryDx=0;entryDy=0;entryPerimeter=0;exitX=1;exitY=0.5;exitDx=0;exitDy=0;" edge="1" parent="1" source="ScBcNCU1pK4F4PmTirVT-57" target="ScBcNCU1pK4F4PmTirVT-50">
          <mxGeometry relative="1" as="geometry">
            <mxPoint x="320" y="730" as="sourcePoint" />
          </mxGeometry>
        </mxCell>
        <mxCell id="ScBcNCU1pK4F4PmTirVT-55" value="Document MS" style="rounded=1;whiteSpace=wrap;html=1;" vertex="1" parent="1">
          <mxGeometry x="110" y="700" width="120" height="60" as="geometry" />
        </mxCell>
        <mxCell id="ScBcNCU1pK4F4PmTirVT-57" value="Metric Sidecar" style="rounded=1;whiteSpace=wrap;html=1;" vertex="1" parent="1">
          <mxGeometry x="240" y="700" width="50" height="60" as="geometry" />
        </mxCell>
        <mxCell id="ScBcNCU1pK4F4PmTirVT-58" value="Account MS" style="rounded=1;whiteSpace=wrap;html=1;" vertex="1" parent="1">
          <mxGeometry x="110" y="870" width="120" height="60" as="geometry" />
        </mxCell>
        <mxCell id="ScBcNCU1pK4F4PmTirVT-61" style="edgeStyle=orthogonalEdgeStyle;rounded=0;orthogonalLoop=1;jettySize=auto;html=1;entryX=0.855;entryY=1;entryDx=0;entryDy=-4.35;entryPerimeter=0;" edge="1" parent="1" source="ScBcNCU1pK4F4PmTirVT-59" target="ScBcNCU1pK4F4PmTirVT-60">
          <mxGeometry relative="1" as="geometry">
            <Array as="points">
              <mxPoint x="420" y="920" />
              <mxPoint x="420" y="886" />
            </Array>
          </mxGeometry>
        </mxCell>
        <mxCell id="ScBcNCU1pK4F4PmTirVT-59" value="" style="rounded=0;whiteSpace=wrap;html=1;" vertex="1" parent="1">
          <mxGeometry x="200" y="910" width="30" height="20" as="geometry" />
        </mxCell>
        <mxCell id="ScBcNCU1pK4F4PmTirVT-60" value="Kafka" style="shape=cylinder3;whiteSpace=wrap;html=1;boundedLbl=1;backgroundOutline=1;size=15;rotation=90;" vertex="1" parent="1">
          <mxGeometry x="680" y="760" width="60" height="210" as="geometry" />
        </mxCell>
        <mxCell id="ScBcNCU1pK4F4PmTirVT-62" value="Account MS" style="rounded=1;whiteSpace=wrap;html=1;" vertex="1" parent="1">
          <mxGeometry x="110" y="950" width="120" height="60" as="geometry" />
        </mxCell>
        <mxCell id="ScBcNCU1pK4F4PmTirVT-64" style="edgeStyle=orthogonalEdgeStyle;rounded=0;orthogonalLoop=1;jettySize=auto;html=1;entryX=0.5;entryY=1;entryDx=0;entryDy=0;entryPerimeter=0;" edge="1" parent="1" source="ScBcNCU1pK4F4PmTirVT-63" target="ScBcNCU1pK4F4PmTirVT-60">
          <mxGeometry relative="1" as="geometry" />
        </mxCell>
        <mxCell id="ScBcNCU1pK4F4PmTirVT-63" value="" style="rounded=0;whiteSpace=wrap;html=1;" vertex="1" parent="1">
          <mxGeometry x="200" y="990" width="30" height="20" as="geometry" />
        </mxCell>
        <mxCell id="ScBcNCU1pK4F4PmTirVT-67" style="edgeStyle=orthogonalEdgeStyle;rounded=0;orthogonalLoop=1;jettySize=auto;html=1;entryX=0;entryY=0.5;entryDx=0;entryDy=0;" edge="1" parent="1" source="ScBcNCU1pK4F4PmTirVT-66" target="ScBcNCU1pK4F4PmTirVT-26">
          <mxGeometry relative="1" as="geometry" />
        </mxCell>
        <mxCell id="ScBcNCU1pK4F4PmTirVT-66" value="IAM" style="rounded=1;whiteSpace=wrap;html=1;" vertex="1" parent="1">
          <mxGeometry x="120" y="405" width="120" height="60" as="geometry" />
        </mxCell>
      </root>
    </mxGraphModel>
  </diagram>
</mxfile>
